# xmcd
#
# Track frame offsets:
#	150
#	14712
#	31674
#	44587
#	60950
#	77162
#	95647
#	113541
#	129366
#	149922
#	166427
#
# Disc length: 2455 seconds
#
# Revision: 0
# Processed by: cddbd v1.5.1PL0 Copyright (c) Steve Scherf et al.
# Submitted via: dBpowerAMP V4.0
#
DISCID=9209950b
DTITLE=Rachel Proctor - Where I Belong
DYEAR=2004
DGENRE=Country
TTITLE0=Days Like This
TTITLE1=Me And Emily
TTITLE2=I'm Gonna Get You Back
TTITLE3=Strong As An Oak
TTITLE4=Shame On Me
TTITLE5=If That Chair Could Talk
TTITLE6=If You're Gonna Leave Me (Leave Me Alone)
TTITLE7=Didn't I
TTITLE8=So Close
TTITLE9=We Did It Our Way
TTITLE10=Where I Belong
EXTD=
EXTT0=
EXTT1=
EXTT2=
EXTT3=
EXTT4=
EXTT5=
EXTT6=
EXTT7=
EXTT8=
EXTT9=
EXTT10=
PLAYORDER=
